<?xml version="1.0" standalone="no"?>
<svg viewBox="0 0 200 200" xmlns="http://www.w3.org/2000/svg">
  <path fill="#9EF0F0" d="M41,-61.7C54.7,-54.9,68.5,-46.3,73.2,-34C77.9,-21.8,73.4,-5.9,69,8.4C64.5,22.6,60,35.4,51.8,45C43.6,54.6,31.7,61,19.1,64.3C6.6,67.6,-6.7,67.7,-20.9,66C-35.2,64.2,-50.5,60.6,-61.8,51.4C-73,42.2,-80.1,27.4,-82,12C-83.8,-3.4,-80.4,-19.3,-73.9,-33.8C-67.4,-48.4,-57.7,-61.6,-44.9,-68.7C-32,-75.8,-16,-76.9,-1.2,-75C13.6,-73.2,27.2,-68.4,41,-61.7Z" transform="translate(100 100)" />
</svg>
